<svg width="357" height="231" viewBox="0 0 357 231" fill="none" xmlns="http://www.w3.org/2000/svg">
<path d="M250.064 149.709C251.392 128.928 262.377 113.483 276.307 99.6595C284.072 91.9067 292.656 85.1303 302.756 80.3825C307.011 78.3467 311.301 76.6206 315.974 75.9816C318.824 75.6684 321.632 75.5479 324.511 76.0465C329.875 76.9622 333.266 80.7915 334.069 86.097C334.581 89.4276 333.945 92.8215 332.957 95.9406C331.149 101.408 328.32 106.36 324.942 110.996C316.091 123.258 304.549 132.743 291.484 140.702C282.722 145.93 273.494 150.457 263.963 154.014C263.288 154.276 262.81 154.579 262.015 154.918C262.514 159.253 264.483 162.988 266.768 166.688C276.06 182.224 288.108 195.514 302.594 206.59C307.37 210.204 312.309 213.549 317.529 216.551C327.453 222.546 338.439 226.044 349.968 227.034C351.981 227.251 353.995 227.47 356.086 227.805C356.282 227.845 356.438 228.079 356.826 228.664C355.834 228.961 355.158 229.222 354.406 229.369C341.458 231.106 329.027 229.524 316.913 224.583C301.893 218.333 288.964 209.091 277.723 197.784C268.51 188.51 260.494 178.479 254.67 166.889C253.358 164.399 252.326 161.564 251.097 158.689C250.344 158.835 249.472 159.056 248.6 159.277C235.627 163.024 222.625 165.958 209.134 166.877C198.254 167.634 187.507 167.311 176.784 164.977C170.99 163.67 165.321 161.784 160.18 158.9C147.071 151.435 142.114 140.126 145.851 125.792C146.019 125.021 146.187 124.249 146.439 123.093C144.814 123.46 143.624 123.716 142.238 123.931C131.614 126.353 120.877 128.349 109.878 129.182C100.462 129.841 91.0172 129.687 81.6741 127.641C77.1396 126.697 72.929 125.216 68.8871 122.962C59.2707 117.435 54.6701 109.223 55.2045 98.2502C55.2298 96.2405 55.6477 94.3137 55.8349 92.035C54.21 92.4018 53.0209 92.6578 51.7131 92.9895C40.0555 95.9016 28.0512 98.0369 16.024 98.8574C12.9772 99.1294 9.89408 99.0923 6.85408 98.8616C5.31155 98.8436 3.81894 98.1294 2.2832 97.6087C1.0665 97.0516 0.368215 95.9995 0.781392 94.5743C1.19454 93.1491 2.38357 92.8929 3.80539 92.9875C6.7678 93.1013 9.77337 93.0215 12.7013 92.8249C27.4581 91.7674 41.8818 88.9276 56.0019 85.1174C57.3097 84.7858 58.54 84.3374 59.0739 82.8356C65.0278 68.2576 74.8216 56.3935 86.3414 45.5939C102.303 30.4802 120.366 18.0207 140.291 8.36651C147.092 5.04737 153.964 2.34774 161.528 1.20255C164.301 0.772312 167.228 0.576006 169.953 0.840955C176.703 1.54149 180.123 6.18292 179.091 12.819C178.407 16.9082 176.702 20.4824 174.406 23.9337C170.13 30.801 164.522 36.6856 158.406 42.0618C146.773 52.4347 133.743 60.7039 119.741 67.7625C102.714 76.4078 84.9181 83.3814 66.7048 88.9587C64.601 89.629 63.2864 90.4633 63.0992 92.7419C62.7864 95.5988 62.1583 98.4894 62.1628 101.311C62.2422 107.574 65.1063 112.403 70.4395 115.83C74.0453 118.194 77.9819 119.517 82.1217 120.379C89.1758 122.05 96.3267 122.33 103.562 122.224C118.904 121.792 133.919 119.075 148.75 115.312C150.059 114.981 150.973 114.567 151.661 113.299C159.047 101.135 169.21 91.3628 180.389 82.6074C192.445 73.1288 205.433 65.0529 219.62 59.0403C225.064 56.7484 230.663 54.6904 236.525 53.7951C238.98 53.3998 241.591 53.2383 243.998 53.538C249.918 54.2671 252.747 58.7852 250.742 64.2114C249.761 66.8281 248.307 69.2457 246.579 71.5054C241.718 77.7471 235.49 82.6968 229.106 87.4125C208.485 102.16 185.238 111.928 160.917 119.055C160.045 119.277 159.25 119.615 158.3 119.719C156.794 120.01 155.874 120.927 155.383 122.235C154.317 125.237 152.935 128.274 152.461 131.4C151.064 138.766 153.635 144.943 159.905 149.271C163.118 151.552 166.97 153.261 170.787 154.661C177.476 157.061 184.502 157.92 191.533 158.275C206.307 159.035 220.88 156.931 235.233 153.471C239.87 152.522 244.829 151.037 250.064 149.709ZM67.1515 81.6968C68.1016 81.5924 68.4184 81.5575 68.8544 81.4467C69.6075 81.3015 70.4021 80.9631 71.155 80.8177C89.6852 75.2058 107.643 67.9633 124.52 58.5816C136.82 51.7732 148.5 44.0289 158.508 34.0229C162.991 29.516 167.278 24.9679 170.352 19.3616C171.608 16.903 172.59 14.2863 173.177 11.5877C173.723 9.0816 172.439 7.40401 169.673 7.33174C167.224 7.22474 164.613 7.38629 162.235 7.89849C153.953 9.49878 146.4 12.9633 138.959 16.8545C122.762 25.4716 108.005 35.9999 94.4108 48.2818C84.7744 57.0555 75.9201 66.4958 69.2572 77.702C68.8084 78.8178 68.043 79.968 67.1515 81.6968ZM261.621 145.365C263.288 144.805 264.4 144.432 265.314 144.018C268.971 142.362 272.587 140.898 276.167 139.125C289.093 132.749 300.814 124.812 310.709 114.38C315.796 108.991 320.138 103.245 323.147 96.5173C324.206 94.0177 324.871 91.4358 325.339 88.813C325.777 85.378 324.29 84.1615 320.772 84.2347C319.427 84.2571 318.041 84.4723 316.81 84.9211C313.673 86.0814 310.339 87.2006 307.314 88.7874C296.372 94.5687 287.142 102.42 278.963 111.598C271.986 119.515 266.382 128.221 263.251 138.349C262.592 140.429 262.208 142.666 261.621 145.365ZM243.856 61.7698C243.701 61.5361 243.468 61.1853 243.193 61.0274C241.729 61.1256 240.23 60.9139 238.843 61.1291C236.029 61.7522 233.018 62.3339 230.239 63.2667C216.901 67.7434 204.877 74.7101 193.43 82.8045C182.982 90.0994 173.155 98.3301 164.772 107.969C164.09 108.734 163.486 109.616 162.883 110.498C164.304 110.592 165.571 110.453 166.605 109.963C174.589 106.89 182.686 104.243 190.437 100.82C204.624 94.8076 218 87.3162 229.781 77.6796C233.774 74.4809 237.302 70.581 240.71 66.7569C242.228 65.461 242.964 63.4985 243.856 61.7698Z" fill="black"/>
</svg>
