<svg width="610" height="198" viewBox="0 0 610 198" fill="none" xmlns="http://www.w3.org/2000/svg">
<path d="M35.8636 151.809L11.4094 151.941V62.7163H45.6453C72.0824 62.7163 87.548 75.2739 87.548 96.027C87.548 117.441 72.8755 130.131 46.9672 130.131H35.8636V151.809ZM46.3063 85.1878H35.8636V107.659H46.3063C57.2776 107.659 62.4328 103.562 62.4328 96.027C62.4328 89.0212 56.8811 85.1878 46.3063 85.1878ZM127.159 153.924C107.86 153.924 94.7738 138.062 94.7738 118.763C94.7738 99.596 110.504 83.7338 131.125 83.7338C152.274 83.7338 167.476 98.5385 167.476 118.763V151.941H145.004V147.05C140.774 151.413 134.826 153.924 127.159 153.924ZM131.125 131.585C138.659 131.585 143.682 125.769 143.682 118.895C143.682 111.889 138.659 106.073 131.125 106.073C123.59 106.073 118.567 111.889 118.567 118.895C118.567 125.769 123.59 131.585 131.125 131.585ZM214.121 184.459C196.937 184.459 185.437 177.189 179.357 164.234L199.052 153.66C201.167 158.154 205.529 162.78 213.725 162.78C222.317 162.78 228.001 157.097 228.662 147.447C225.225 151.016 220.334 152.602 213.857 152.602C191.518 152.602 182.397 138.458 182.397 118.631V85.8487H205.794V118.102C205.794 125.372 210.024 130.263 217.03 130.263C222.846 130.263 228.265 125.372 228.265 118.102V85.8487H252.455V145.596C252.455 169.39 236.064 184.459 214.121 184.459ZM291.477 151.941H267.683V115.326C267.683 97.7454 277.729 83.7338 299.275 83.7338C303.77 83.7338 308.661 84.5269 311.965 85.9809V108.849C308.793 107.131 304.827 106.205 301.523 106.205C295.31 106.205 291.477 109.774 291.477 116.119V151.941ZM354.316 153.924C333.695 153.924 317.965 138.062 317.965 118.763C317.965 99.596 333.695 83.7338 354.316 83.7338C374.937 83.7338 390.667 99.596 390.667 118.763C390.667 138.062 374.937 153.924 354.316 153.924ZM354.316 131.585C361.851 131.585 366.874 125.769 366.874 118.895C366.874 111.889 361.851 106.073 354.316 106.073C346.782 106.073 341.759 111.889 341.759 118.895C341.759 125.769 346.782 131.585 354.316 131.585ZM403.932 55.4462H427.725V151.941H403.932V55.4462ZM446.273 55.4462H470.066V151.941H446.273V55.4462Z" fill="black"/>
<path d="M553.929 87.2327H538.973L545.418 50.3909C546.269 45.2841 551.132 42.4876 556.118 42.4876C560.616 42.4876 565.358 44.7978 566.818 49.6614L570.465 61.6988C571.924 66.4408 572.289 69.4806 572.289 71.426C572.289 71.7908 572.411 72.034 572.654 72.034C572.897 72.034 573.019 71.7908 573.019 71.426C573.019 69.4806 573.262 66.4408 574.721 61.6988L578.369 49.6614C579.828 44.9194 584.448 42.6092 589.068 42.6092C593.932 42.6092 598.917 45.2841 599.768 50.3909L606.213 87.2327H591.257L589.068 72.1555C587.853 64.009 588.096 60.9693 588.096 59.3886C588.096 58.6591 587.974 58.4159 587.731 58.4159C587.488 58.4159 587.366 58.6591 587.366 59.3886C587.366 60.9693 587.245 64.7386 584.813 72.1555L581.652 81.8828C580.436 85.652 576.666 87.3543 572.775 87.3543C568.763 87.3543 564.75 85.4089 563.656 81.8828L560.495 72.1555C557.698 63.6442 557.82 60.6045 557.82 59.3886C557.82 58.6591 557.698 58.4159 557.455 58.4159C557.212 58.4159 557.09 58.6591 557.09 59.3886C557.09 60.6045 557.333 63.4011 556.118 72.1555L553.929 87.2327ZM538.487 43.3387V56.8352H527.544V87.2327H513.075V56.8352H501.645V43.3387H538.487Z" fill="black"/>
</svg>
